<?xml version="1.0" encoding="utf-8"?>
<!-- Generator: Adobe Illustrator 27.5.0, SVG Export Plug-In . SVG Version: 6.00 Build 0)  -->
<svg version="1.1" id="PRINT" xmlns="http://www.w3.org/2000/svg" xmlns:xlink="http://www.w3.org/1999/xlink" x="0px" y="0px"
	 viewBox="0 0 500 500" style="enable-background:new 0 0 500 500;" xml:space="preserve">
<g>
	
		<rect id="CUSTOM-Background_00000124871819329746339780000006006541069139115702_" style="fill:#6BB5F2;" width="500" height="500"/>
	<text transform="matrix(1 0 0 1 78.8704 254.9924)" style="fill:#FFFFFF; font-family:'Lexend-ExtraLight'; font-size:51.7732px;">Health Care</text>
	
		<text transform="matrix(1 0 0 1 77.5775 289.1327)" style="fill:#FFFFFF; font-family:'Lexend-Light'; font-size:24.6023px; letter-spacing:1;">Family Doctor</text>
	<g id="CUSTOM-group">
		<path style="fill:#FFFFFF;" d="M400.062,228.19c-9.88-8.641-22.442-1.049-22.648,9.244c-0.052,2.623,0.705,5.178,2.212,7.534h9.77
			l1.738-2.896c0.505-0.841,1.726-0.868,2.259-0.03l3.666,5.761l5.344-11.282c0.466-0.984,1.855-1.016,2.369-0.061l4.581,8.508
			h11.145C428.754,232.065,412.438,217.366,400.062,228.19L400.062,228.19z"/>
		<path style="fill:#FFFFFF;" d="M407.391,248.282l-3.712-6.894l-5.249,11.082c-0.447,0.943-1.76,1.025-2.32,0.144l-3.804-5.977
			l-1.019,1.699c-0.24,0.4-0.672,0.645-1.139,0.645h-8.421c0.264,0.276-1.143-1.128,17.399,17.318c0.518,0.515,1.355,0.515,1.873,0
			c18.257-18.162,17.135-17.042,17.399-17.318h-9.837C408.072,248.98,407.623,248.712,407.391,248.282L407.391,248.282z"/>
	</g>
	<path id="CUSTOM_00000092435526866768779310000014712006358707349419_" style="fill:#FFFFFF;" d="M432.802,260.729v-30.915
		c1.01-0.41,1.723-1.397,1.723-2.554c0-1.523-1.236-2.759-2.761-2.759c-0.234,0-0.458,0.038-0.675,0.093l-27.783-16.04
		c0.02-0.145,0.044-0.289,0.044-0.439c0-1.808-1.467-3.274-3.275-3.274c-1.781,0-3.224,1.424-3.267,3.194l-28.957,16.717
		c-0.348-0.158-0.731-0.251-1.137-0.251c-1.523,0-2.759,1.236-2.759,2.759c0,1.077,0.624,2,1.523,2.455v28.999
		c-2.326,0.559-4.062,2.64-4.062,5.139c0,2.925,2.372,5.297,5.298,5.297c2.926,0,5.299-2.372,5.299-5.297
		c0-2.499-1.735-4.579-4.062-5.138v-28.999c0.9-0.454,1.524-1.377,1.524-2.455c0-0.191-0.02-0.378-0.057-0.559l28.29-16.333
		c0.597,0.626,1.434,1.021,2.367,1.021c0.755,0,1.442-0.266,1.996-0.696l27.102,15.648c-0.103,0.289-0.169,0.595-0.169,0.919
		c0,0.997,0.534,1.862,1.326,2.347v31.245c-1.565,0.584-2.686,2.08-2.686,3.849c0,0.134,0.027,0.262,0.04,0.393l-27.052,15.618
		c-0.391-0.195-0.826-0.315-1.293-0.315c-1.61,0-2.913,1.305-2.913,2.914c0,1.61,1.304,2.915,2.913,2.915s2.914-1.305,2.914-2.915
		c0-0.219-0.029-0.431-0.075-0.637l26.482-15.289c0.755,0.874,1.859,1.439,3.104,1.439c2.277,0,4.121-1.845,4.121-4.121
		C435.886,262.786,434.573,261.191,432.802,260.729z"/>
	<path id="CUSTOM" style="fill:#FFFFFF;" d="M398.603,282.311h-113.51c-0.409-1.114-1.47-1.914-2.726-1.914
		c-1.61,0-2.913,1.305-2.913,2.914c0,1.61,1.304,2.915,2.913,2.915c1.257,0,2.317-0.8,2.726-1.915h113.51V282.311z"/>
</g>
</svg>
